# xmcd
#
# Track frame offsets:
#	150
#	15406
#	30931
#	45594
#	58575
#	71514
#	85891
#	96234
#	107499
#	118964
#
# Disc length: 1736 seconds
#
# Revision: 0
# Processed by: cddbd v1.5.2PL0 Copyright (c) Steve Scherf et al.
# Submitted via: audiograbber 1.83.01
#
DISCID=7606c60a
DTITLE=Death by stereo - Black Sheep Of The American Dream
DYEAR=2012
DGENRE=Hardcore
TTITLE0=WTF Is Going On Around Here?
TTITLE1=Much Like A Sore Dick, We Can't Be Beat
TTITLE2=Growing Numb
TTITLE3=Get British
TTITLE4=Harmonic Divisor
TTITLE5=Depression Expression
TTITLE6=Something's Changing
TTITLE7=Following Is What You Do Best!
TTITLE8=The 5th Of July
TTITLE9=Please Go To Heaven Now
EXTD=
EXTT0=
EXTT1=
EXTT2=
EXTT3=
EXTT4=
EXTT5=
EXTT6=
EXTT7=
EXTT8=
EXTT9=
PLAYORDER=
